<svg width="500" height="500" viewBox="0 0 500 500" fill="none" xmlns="http://www.w3.org/2000/svg">
<path d="M175.397 66.1713C158.58 77.892 149.073 97.1466 150.199 117.043C150.496 121.292 150.103 124.761 149.513 124.801C148.924 124.841 145.27 123.774 141.45 122.515C131.505 119.047 120.405 118.898 108.74 122.024C93.1479 126.202 83.44 133.49 74.9696 147.18C66.0853 161.58 64.1192 175.332 68.5074 191.709C73.1058 208.87 83.7496 222.126 98.5184 229.229L105.278 232.468L97.3165 234.602C70.2796 241.842 52.0671 269.444 55.9968 297.122C60.3525 328.174 87.7602 350.158 118.214 347.167C122.657 346.699 126.315 346.437 126.536 346.378C126.677 346.463 125.563 350.366 123.921 355.012C110.743 393.767 139.655 433.022 180.447 431.83C196.551 431.361 211.186 424.071 222.876 410.723L228.761 403.978L229.722 407.566C230.233 409.475 232.25 413.862 234.08 417.096C242.496 431.911 256.042 441.625 273.053 445L283.851 447.157L298.573 443.331L313.381 439.363L321.016 432.871C331.677 423.763 338.029 412.924 340.76 399.331C342.813 389.043 342.794 388.088 340.027 375.964L337.111 363.28L345.045 367.764C360.029 376.129 378.805 377.112 394.55 370.366C415.243 361.457 428.668 342.471 429.929 320.252C431.024 303.248 422.787 284.179 409.709 273.498L404.169 268.973L407.158 267.572C427.275 257.854 436.932 247.692 442.94 229.734C449.677 210.017 442.436 184.79 425.933 169.858C411.945 157.136 390.71 152.369 371.644 157.478L366.036 158.981L369.531 152.275C385.179 121.396 370.712 83.5568 338.776 72.0383C325.568 67.1625 315.845 66.7626 302.801 70.1351C288.893 73.8618 276.877 82.8507 269.226 95.1204L264.652 102.72L263.72 99.2415C259.152 82.1943 244.547 66.2686 228.166 60.3242C215.638 55.7479 208.815 55.4121 194.535 58.6341C183.566 61.2181 181.272 62.0736 175.397 66.1713ZM246.114 199.537C266.032 198.046 285.707 209.122 295.08 227.05C311.377 258.266 290.071 297.635 255.165 300.619C227.068 302.974 201.965 282.414 199.591 255.16C197.251 226.696 218.18 201.612 246.114 199.537Z" fill="#09244B"/>
<path d="M238.406 185.724L238.406 156.941" stroke="#F7F2EF" stroke-width="8.01283" stroke-linecap="round"/>
<path d="M179.279 207.813C179.279 210.589 179.279 213.366 179.279 216.142C179.279 223.609 179.747 231.265 179.142 238.715C178.909 241.592 178.609 244.381 178.609 247.268C178.609 247.515 178.609 248.79 178.609 248.644" stroke="#F7F2EF" stroke-width="8.01283" stroke-linecap="round"/>
<circle cx="252.525" cy="252.525" r="58.9224" fill="#09244B"/>
<path d="M161.297 218.41C174.575 218.41 181.74 228.037 189.013 238.428" stroke="#F7F2EF" stroke-width="8.01283" stroke-linecap="round"/>
<path d="M219.809 167.597C230.985 167.597 245.082 169.639 250.605 180.685" stroke="#F7F2EF" stroke-width="8.01283" stroke-linecap="round"/>
<path d="M298.469 260.185C299.315 256.527 287.934 249.933 284.838 247.372C280.316 243.633 272.805 242.341 267.672 244.717C262.224 247.24 259.815 254.054 259.76 260.316C259.741 262.575 260.928 266.755 262.16 268.73C264.004 271.685 264.512 276.782 267.238 279.036" stroke="#F7F2EF" stroke-width="12.6262" stroke-linecap="round"/>
<circle cx="284.204" cy="389.464" r="58.946" fill="#09244B"/>
</svg>
