<svg width="501" height="501" viewBox="0 0 501 501" fill="none" xmlns="http://www.w3.org/2000/svg">
<path d="M175.467 66.1978C158.643 77.9232 149.132 97.1856 150.259 117.09C150.556 121.34 150.163 124.811 149.573 124.851C148.983 124.891 145.328 123.824 141.506 122.564C131.558 119.095 120.453 118.946 108.784 122.073C93.1852 126.252 83.4733 133.544 74.9996 147.239C66.1118 161.645 64.1449 175.402 68.5348 191.786C73.1351 208.954 83.7831 222.214 98.5578 229.321L105.32 232.561L97.3554 234.696C70.3077 241.939 52.088 269.551 56.0192 297.241C60.3767 328.305 87.7953 350.298 118.261 347.306C122.706 346.837 126.365 346.576 126.586 346.517C126.727 346.601 125.613 350.507 123.971 355.154C110.787 393.924 139.711 433.196 180.519 432.003C196.629 431.534 211.271 424.241 222.965 410.888L228.852 404.139L229.814 407.729C230.326 409.638 232.343 414.028 234.174 417.262C242.593 432.084 256.144 441.802 273.162 445.178L283.964 447.336L298.693 443.508L313.506 439.539L321.144 433.044C331.81 423.933 338.164 413.089 340.896 399.49C342.95 389.198 342.931 388.244 340.163 376.115L337.245 363.425L345.183 367.911C360.173 376.279 378.956 377.263 394.707 370.514C415.409 361.601 428.839 342.608 430.101 320.381C431.196 303.369 422.955 284.292 409.873 273.608L404.33 269.081L407.32 267.679C427.446 257.957 437.107 247.791 443.117 229.826C449.857 210.101 442.612 184.864 426.103 169.926C412.109 157.199 390.866 152.43 371.792 157.541L366.183 159.044L369.679 152.336C385.333 121.445 370.86 83.5904 338.911 72.0672C325.698 67.1895 315.971 66.7894 302.922 70.1633C289.008 73.8915 276.987 82.884 269.334 95.1585L264.758 102.761L263.825 99.2813C259.256 82.2273 244.645 66.2952 228.257 60.3484C215.724 55.7703 208.898 55.4344 194.613 58.6577C183.64 61.2427 181.345 62.0986 175.467 66.1978ZM246.213 199.617C266.138 198.125 285.821 209.206 295.198 227.141C311.501 258.37 290.187 297.754 255.267 300.739C227.159 303.095 202.046 282.527 199.67 255.262C197.33 226.786 218.267 201.693 246.213 199.617Z" fill="#09244B"/>
<circle cx="284.204" cy="389.464" r="58.946" fill="#09244B"/>
<circle cx="252.625" cy="252.626" r="58.946" fill="#09244B"/>
<path d="M161.361 218.497C174.645 218.497 181.812 228.128 189.089 238.522" stroke="#F7F2EF" stroke-width="12.6313" stroke-linecap="round"/>
<path d="M219.897 167.664C231.078 167.664 245.18 169.707 250.705 180.757" stroke="#F7F2EF" stroke-width="12.6313" stroke-linecap="round"/>
<path d="M259.178 270.1C259.178 273.857 271.757 277.716 275.352 279.514C280.603 282.139 288.215 281.704 292.682 278.23C297.423 274.542 298.234 267.358 296.875 261.243C296.385 259.037 294.285 255.23 292.639 253.584C290.175 251.119 288.53 246.266 285.365 244.683" stroke="#F7F2EF" stroke-width="12.6313" stroke-linecap="round"/>
</svg>
